<?xml version="1.0" encoding="UTF-8"?>
<!DOCTYPE svg PUBLIC "-//W3C//DTD SVG 1.1//EN" "http://www.w3.org/Graphics/SVG/1.1/DTD/svg11.dtd">
<svg xmlns="http://www.w3.org/2000/svg" version="1.1" width="150px" height="150px" style="shape-rendering:geometricPrecision; text-rendering:geometricPrecision; image-rendering:optimizeQuality; fill-rule:evenodd; clip-rule:evenodd" xmlns:xlink="http://www.w3.org/1999/xlink">
<g><path style="opacity:1" fill="#000100" d="M -0.5,-0.5 C 49.5,-0.5 99.5,-0.5 149.5,-0.5C 149.5,49.5 149.5,99.5 149.5,149.5C 99.5,149.5 49.5,149.5 -0.5,149.5C -0.5,99.5 -0.5,49.5 -0.5,-0.5 Z"/></g>
<g><path style="opacity:1" fill="#a9e617" d="M 96.5,20.5 C 107.273,21.7344 110.606,27.5677 106.5,38C 109.94,44.1811 110.44,50.6811 108,57.5C 106.691,59.9757 104.858,61.9757 102.5,63.5C 103.864,66.3633 106.03,68.3633 109,69.5C 111.46,75.2453 112.127,81.2453 111,87.5C 110.117,90.1024 108.617,92.2691 106.5,94C 107.602,96.4009 107.769,98.9009 107,101.5C 104.485,103.107 103.151,105.44 103,108.5C 102.044,109.894 100.711,110.561 99,110.5C 85.0755,107.599 70.9089,105.765 56.5,105C 55.6433,104.311 54.9767,103.478 54.5,102.5C 49.0661,100.554 43.5661,98.8877 38,97.5C 37.3333,93.8333 37.3333,90.1667 38,86.5C 39.0113,85.6634 40.1779,85.33 41.5,85.5C 41.627,82.755 40.4603,80.755 38,79.5C 37.3333,75.8333 37.3333,72.1667 38,68.5C 39.0113,67.6634 40.1779,67.33 41.5,67.5C 41.5,66.1667 41.5,64.8333 41.5,63.5C 40.1779,63.67 39.0113,63.3366 38,62.5C 37.3333,54.1667 37.3333,45.8333 38,37.5C 38.5,37 39,36.5 39.5,36C 43.1516,35.5014 46.8183,35.3347 50.5,35.5C 50.2161,32.2234 50.5495,29.0567 51.5,26C 55.5575,25.2334 59.5575,25.4001 63.5,26.5C 64.3081,26.1924 64.9747,25.6924 65.5,25C 70.6811,24.6377 75.8478,24.1377 81,23.5C 82.4357,23.5589 83.769,23.8922 85,24.5C 88.7297,22.7272 92.5631,21.3938 96.5,20.5 Z"/></g>
<g><path style="opacity:1" fill="#de1f84" d="M 96.5,24.5 C 97.5,24.5 98.5,24.5 99.5,24.5C 99.5391,26.3588 98.7058,27.6921 97,28.5C 96.51,27.2068 96.3433,25.8734 96.5,24.5 Z"/></g>
<g><path style="opacity:1" fill="#e01188" d="M 94.5,28.5 C 93.1667,28.5 92.5,27.8333 92.5,26.5C 93.209,25.596 94.209,25.2627 95.5,25.5C 95.7373,26.791 95.404,27.791 94.5,28.5 Z"/></g>
<g><path style="opacity:1" fill="#d74d71" d="M 91.5,26.5 C 91.5,27.5 91.5,28.5 91.5,29.5C 90.5,29.5 89.5,29.5 88.5,29.5C 88.5,28.5 88.5,27.5 88.5,26.5C 89.6522,25.375 90.6522,25.375 91.5,26.5 Z"/></g>
<g><path style="opacity:1" fill="#dd2682" d="M 75.5,28.5 C 76.5,28.5 77.5,28.5 78.5,28.5C 78.5,29.5 78.5,30.5 78.5,31.5C 77.5,31.5 76.5,31.5 75.5,31.5C 75.5,30.5 75.5,29.5 75.5,28.5 Z"/></g>
<g><path style="opacity:1" fill="#db387b" d="M 53.5,29.5 C 54.5,29.5 55.5,29.5 56.5,29.5C 56.5,30.5 56.5,31.5 56.5,32.5C 56.5,31.5 56.5,30.5 56.5,29.5C 55.5,29.5 54.5,29.5 53.5,29.5 Z"/></g>
<g><path style="opacity:1" fill="#de2183" d="M 69.5,28.5 C 69.5,29.5 69.5,30.5 69.5,31.5C 68.5,31.5 67.5,31.5 66.5,31.5C 66.5,30.5 66.5,29.5 66.5,28.5C 67.5,28.5 68.5,28.5 69.5,28.5 Z"/></g>
<g><path style="opacity:1" fill="#df1c85" d="M 94.5,29.5 C 95.404,30.209 95.7373,31.209 95.5,32.5C 94.5,32.5 93.5,32.5 92.5,32.5C 92.2852,30.8212 92.9519,29.8212 94.5,29.5 Z"/></g>
<g><path style="opacity:1" fill="#df1f86" d="M 84.5,30.5 C 85.5,30.5 86.5,30.5 87.5,30.5C 88.8333,30.5 90.1667,30.5 91.5,30.5C 91.8333,33.5 90.5,34.8333 87.5,34.5C 87.5,35.5 87.5,36.5 87.5,37.5C 88.8333,37.5 90.1667,37.5 91.5,37.5C 106.255,38.3375 110.089,45.3375 103,58.5C 99.8485,60.6515 96.6818,62.6515 93.5,64.5C 95.2199,65.934 97.2199,66.7674 99.5,67C 100.38,68.3561 100.714,69.8561 100.5,71.5C 106.396,71.0589 109.063,73.8922 108.5,80C 107.915,90.6486 102.248,95.1486 91.5,93.5C 91.5,95.8333 91.5,98.1667 91.5,100.5C 89.8008,100.34 88.1341,100.506 86.5,101C 87.3366,102.011 87.67,103.178 87.5,104.5C 83.8388,104.65 82.8388,103.15 84.5,100C 82.8659,99.5065 81.1992,99.3398 79.5,99.5C 79.5,97.1667 79.5,94.8333 79.5,92.5C 78.0813,91.5489 76.4147,91.2155 74.5,91.5C 74.5,92.8333 74.5,94.1667 74.5,95.5C 73.1667,95.5 71.8333,95.5 70.5,95.5C 70.5,96.5 70.5,97.5 70.5,98.5C 68.8333,98.5 67.1667,98.5 65.5,98.5C 65.5,99.8333 65.5,101.167 65.5,102.5C 64.209,102.737 63.209,102.404 62.5,101.5C 63.1132,96.6968 62.7799,94.3635 61.5,94.5C 60.5,94.5 59.5,94.5 58.5,94.5C 58.405,92.2143 57.7384,90.2143 56.5,88.5C 55.5,88.5 54.5,88.5 53.5,88.5C 53.5,86.1667 53.5,83.8333 53.5,81.5C 54.8333,81.5 56.1667,81.5 57.5,81.5C 58.4816,78.0381 58.815,74.3714 58.5,70.5C 59.5,70.5 60.5,70.5 61.5,70.5C 61.5,69.5 61.5,68.5 61.5,67.5C 60.5,67.5 59.5,67.5 58.5,67.5C 58.5,66.1667 58.5,64.8333 58.5,63.5C 59.5,63.5 60.5,63.5 61.5,63.5C 61.5,62.5 61.5,61.5 61.5,60.5C 60.5,60.5 59.5,60.5 58.5,60.5C 58.815,56.6286 58.4816,52.9619 57.5,49.5C 56.1667,49.5 54.8333,49.5 53.5,49.5C 53.5,48.5 53.5,47.5 53.5,46.5C 54.3984,45.8423 55.3984,45.1757 56.5,44.5C 55.675,43.6143 54.675,43.281 53.5,43.5C 53.5,42.5 53.5,41.5 53.5,40.5C 56.7131,40.81 59.7131,40.4767 62.5,39.5C 62.5,37.1667 62.5,34.8333 62.5,32.5C 63.8333,32.5 65.1667,32.5 66.5,32.5C 69.1667,32.5 71.8333,32.5 74.5,32.5C 74.5,33.8333 74.5,35.1667 74.5,36.5C 73.8333,36.5 73.1667,36.5 72.5,36.5C 71.596,37.209 71.2627,38.209 71.5,39.5C 74.1667,39.5 76.8333,39.5 79.5,39.5C 79.5,36.8333 79.5,34.1667 79.5,31.5C 81.4147,31.7845 83.0813,31.4511 84.5,30.5 Z"/></g>
<g><path style="opacity:1" fill="#c39d43" d="M 69.5,28.5 C 70.1667,28.5 70.8333,28.5 71.5,28.5C 71.5,29.5 71.5,30.5 71.5,31.5C 72.5,31.5 73.5,31.5 74.5,31.5C 74.5,30.5 74.5,29.5 74.5,28.5C 74.8333,28.5 75.1667,28.5 75.5,28.5C 75.5,29.5 75.5,30.5 75.5,31.5C 75.7845,33.4147 75.4511,35.0813 74.5,36.5C 74.5,35.1667 74.5,33.8333 74.5,32.5C 71.8333,32.5 69.1667,32.5 66.5,32.5C 66.5,32.1667 66.5,31.8333 66.5,31.5C 67.5,31.5 68.5,31.5 69.5,31.5C 69.5,30.5 69.5,29.5 69.5,28.5 Z"/></g>
<g><path style="opacity:1" fill="#de2482" d="M 71.5,28.5 C 72.5,28.5 73.5,28.5 74.5,28.5C 74.5,29.5 74.5,30.5 74.5,31.5C 73.5,31.5 72.5,31.5 71.5,31.5C 71.5,30.5 71.5,29.5 71.5,28.5 Z"/></g>
<g><path style="opacity:1" fill="#abf60e" d="M 75.5,31.5 C 76.5,31.5 77.5,31.5 78.5,31.5C 78.5,33.8333 78.5,36.1667 78.5,38.5C 75.9179,38.9746 73.9179,38.3079 72.5,36.5C 73.1667,36.5 73.8333,36.5 74.5,36.5C 75.4511,35.0813 75.7845,33.4147 75.5,31.5 Z"/></g>
<g><path style="opacity:1" fill="#d26266" d="M 101.5,27.5 C 102.5,27.5 103.5,27.5 104.5,27.5C 103.375,29.8205 103.208,32.1538 104,34.5C 102.989,35.3366 101.822,35.67 100.5,35.5C 100.279,32.7212 100.612,30.0545 101.5,27.5 Z"/></g>
<g><path style="opacity:1" fill="#d64c70" d="M 61.5,29.5 C 61.5,31.5 61.5,33.5 61.5,35.5C 60.5,35.5 59.5,35.5 58.5,35.5C 58.5,33.5 58.5,31.5 58.5,29.5C 59.5,29.5 60.5,29.5 61.5,29.5 Z"/></g>
<g><path style="opacity:1" fill="#bbbd33" d="M 75.5,28.5 C 76.5676,27.5655 77.901,27.2322 79.5,27.5C 79.5,28.5 79.5,29.5 79.5,30.5C 80.5,30.5 81.5,30.5 82.5,30.5C 82.5,29.5 82.5,28.5 82.5,27.5C 83.1667,28.5 83.8333,29.5 84.5,30.5C 83.0813,31.4511 81.4147,31.7845 79.5,31.5C 79.5,34.1667 79.5,36.8333 79.5,39.5C 76.8333,39.5 74.1667,39.5 71.5,39.5C 71.2627,38.209 71.596,37.209 72.5,36.5C 73.9179,38.3079 75.9179,38.9746 78.5,38.5C 78.5,36.1667 78.5,33.8333 78.5,31.5C 78.5,30.5 78.5,29.5 78.5,28.5C 77.5,28.5 76.5,28.5 75.5,28.5 Z"/></g>
<g><path style="opacity:1" fill="#e01487" d="M 79.5,27.5 C 80.5,27.5 81.5,27.5 82.5,27.5C 82.5,28.5 82.5,29.5 82.5,30.5C 81.5,30.5 80.5,30.5 79.5,30.5C 79.5,29.5 79.5,28.5 79.5,27.5 Z"/></g>
<g><path style="opacity:1" fill="#c29743" d="M 53.5,29.5 C 56.1667,28.1667 58.8333,28.1667 61.5,29.5C 60.5,29.5 59.5,29.5 58.5,29.5C 58.5,31.5 58.5,33.5 58.5,35.5C 57.8333,34.5 57.1667,33.5 56.5,32.5C 56.5,31.5 56.5,30.5 56.5,29.5C 55.5,29.5 54.5,29.5 53.5,29.5 Z"/></g>
<g><path style="opacity:1" fill="#bdb637" d="M 88.5,26.5 C 88.5,27.5 88.5,28.5 88.5,29.5C 89.5,29.5 90.5,29.5 91.5,29.5C 91.5,28.5 91.5,27.5 91.5,26.5C 91.8333,26.5 92.1667,26.5 92.5,26.5C 92.5,27.8333 93.1667,28.5 94.5,28.5C 94.5,28.8333 94.5,29.1667 94.5,29.5C 92.9519,29.8212 92.2852,30.8212 92.5,32.5C 93.5,32.5 94.5,32.5 95.5,32.5C 95.5,32.8333 95.5,33.1667 95.5,33.5C 94.5,33.5 93.5,33.5 92.5,33.5C 92.5,34.5 92.5,35.5 92.5,36.5C 91.8333,36.5 91.5,36.8333 91.5,37.5C 90.1667,37.5 88.8333,37.5 87.5,37.5C 87.5,36.5 87.5,35.5 87.5,34.5C 90.5,34.8333 91.8333,33.5 91.5,30.5C 90.1667,30.5 88.8333,30.5 87.5,30.5C 87.2322,28.901 87.5655,27.5676 88.5,26.5 Z"/></g>
<g><path style="opacity:1" fill="#df1786" d="M 95.5,33.5 C 95.5,34.5 95.5,35.5 95.5,36.5C 94.5,36.5 93.5,36.5 92.5,36.5C 92.5,35.5 92.5,34.5 92.5,33.5C 93.5,33.5 94.5,33.5 95.5,33.5 Z"/></g>
<g><path style="opacity:1" fill="#de2384" d="M 96.5,32.5 C 97.5,32.5 98.5,32.5 99.5,32.5C 99.5,33.5 99.5,34.5 99.5,35.5C 98.5,35.5 97.5,35.5 96.5,35.5C 96.5,34.5 96.5,33.5 96.5,32.5 Z"/></g>
<g><path style="opacity:1" fill="#d25e66" d="M 62.5,39.5 C 59.7131,40.4767 56.7131,40.81 53.5,40.5C 53.5,39.1667 53.5,37.8333 53.5,36.5C 56.1667,36.5 58.8333,36.5 61.5,36.5C 61.2627,37.791 61.596,38.791 62.5,39.5 Z"/></g>
<g><path style="opacity:1" fill="#dc2380" d="M 45.5,39.5 C 46.5,39.5 47.5,39.5 48.5,39.5C 48.5,40.5 48.5,41.5 48.5,42.5C 47.5,42.5 46.5,42.5 45.5,42.5C 45.5,41.5 45.5,40.5 45.5,39.5 Z"/></g>
<g><path style="opacity:1" fill="#dd2881" d="M 49.5,39.5 C 50.5,39.5 51.5,39.5 52.5,39.5C 52.5,40.5 52.5,41.5 52.5,42.5C 51.5,42.5 50.5,42.5 49.5,42.5C 49.5,41.5 49.5,40.5 49.5,39.5 Z"/></g>
<g><path style="opacity:1" fill="#d4506b" d="M 40.5,39.5 C 41.8333,39.5 43.1667,39.5 44.5,39.5C 44.5,40.5 44.5,41.5 44.5,42.5C 43.1667,42.5 41.8333,42.5 40.5,42.5C 40.5,41.5 40.5,40.5 40.5,39.5 Z"/></g>
<g><path style="opacity:1" fill="#e01188" d="M 45.5,43.5 C 46.675,43.281 47.675,43.6143 48.5,44.5C 46.9483,45.7979 45.9483,45.4646 45.5,43.5 Z"/></g>
<g><path style="opacity:1" fill="#abf60e" d="M 62.5,43.5 C 63.675,43.281 64.675,43.6143 65.5,44.5C 63.9483,45.7979 62.9483,45.4646 62.5,43.5 Z"/></g>
<g><path style="opacity:1" fill="#b4e025" d="M 66.5,42.5 C 67.5,42.5 68.5,42.5 69.5,42.5C 69.5,43.5 69.5,44.5 69.5,45.5C 68.5,45.5 67.5,45.5 66.5,45.5C 66.5,44.5 66.5,43.5 66.5,42.5 Z"/></g>
<g><path style="opacity:1" fill="#afe919" d="M 100.5,43.5 C 101.5,43.5 102.5,43.5 103.5,43.5C 103.5,44.5 103.5,45.5 103.5,46.5C 102.5,46.5 101.5,46.5 100.5,46.5C 100.5,45.5 100.5,44.5 100.5,43.5 Z"/></g>
<g><path style="opacity:1" fill="#dd2881" d="M 52.5,46.5 C 52.5,47.5 52.5,48.5 52.5,49.5C 51.5,49.5 50.5,49.5 49.5,49.5C 49.5,48.5 49.5,47.5 49.5,46.5C 50.5,46.5 51.5,46.5 52.5,46.5 Z"/></g>
<g><path style="opacity:1" fill="#adf115" d="M 77.5,47.5 C 81.6372,47.1463 85.6372,47.6463 89.5,49C 91.4625,54.727 89.4625,58.3937 83.5,60C 80.1832,60.4983 76.8499,60.665 73.5,60.5C 73.5,56.5 73.5,52.5 73.5,48.5C 75.099,48.7678 76.4324,48.4345 77.5,47.5 Z"/></g>
<g><path style="opacity:1" fill="#c19942" d="M 77.5,47.5 C 76.4324,48.4345 75.099,48.7678 73.5,48.5C 73.5,52.5 73.5,56.5 73.5,60.5C 72.5151,56.3656 72.1818,52.0323 72.5,47.5C 74.1667,47.5 75.8333,47.5 77.5,47.5 Z"/></g>
<g><path style="opacity:1" fill="#d36167" d="M 40.5,46.5 C 41.8333,46.5 43.1667,46.5 44.5,46.5C 44.5,48.5 44.5,50.5 44.5,52.5C 43.1667,52.5 41.8333,52.5 40.5,52.5C 40.5,50.5 40.5,48.5 40.5,46.5 Z"/></g>
<g><path style="opacity:1" fill="#cf6e5f" d="M 57.5,49.5 C 58.4816,52.9619 58.815,56.6286 58.5,60.5C 58.1667,60.5 57.8333,60.5 57.5,60.5C 57.5,59.1667 57.5,57.8333 57.5,56.5C 56.1667,56.5 54.8333,56.5 53.5,56.5C 53.5,54.5 53.5,52.5 53.5,50.5C 55.099,50.7678 56.4324,50.4345 57.5,49.5 Z"/></g>
<g><path style="opacity:1" fill="#e00e89" d="M 49.5,50.5 C 53.5,51.1667 53.5,51.8333 49.5,52.5C 49.5,51.8333 49.5,51.1667 49.5,50.5 Z"/></g>
<g><path style="opacity:1" fill="#acf310" d="M 60.5,50.5 C 61.675,50.281 62.675,50.6143 63.5,51.5C 61.9483,52.7979 60.9483,52.4646 60.5,50.5 Z"/></g>
<g><path style="opacity:1" fill="#b1e51c" d="M 100.5,51.5 C 101.5,51.5 102.5,51.5 103.5,51.5C 103.5,52.5 103.5,53.5 103.5,54.5C 102.5,54.5 101.5,54.5 100.5,54.5C 100.5,53.5 100.5,52.5 100.5,51.5 Z"/></g>
<g><path style="opacity:1" fill="#b9c72f" d="M 52.5,46.5 C 52.8333,46.5 53.1667,46.5 53.5,46.5C 53.5,47.5 53.5,48.5 53.5,49.5C 54.8333,49.5 56.1667,49.5 57.5,49.5C 56.4324,50.4345 55.099,50.7678 53.5,50.5C 53.5,52.5 53.5,54.5 53.5,56.5C 53.7373,57.791 53.404,58.791 52.5,59.5C 52.5,59.8333 52.5,60.1667 52.5,60.5C 51.5,60.5 50.5,60.5 49.5,60.5C 49.5,61.5 49.5,62.5 49.5,63.5C 48.596,62.791 48.2627,61.791 48.5,60.5C 47.209,60.7373 46.209,60.404 45.5,59.5C 45.1667,59.5 44.8333,59.5 44.5,59.5C 43.4324,60.4345 42.099,60.7678 40.5,60.5C 40.5,59.1667 40.5,57.8333 40.5,56.5C 41.8333,56.5 43.1667,56.5 44.5,56.5C 44.2627,55.209 44.596,54.209 45.5,53.5C 45.5,54.5 45.5,55.5 45.5,56.5C 46.5,56.5 47.5,56.5 48.5,56.5C 48.5,55.5 48.5,54.5 48.5,53.5C 49.1667,53.5 49.5,53.1667 49.5,52.5C 53.5,51.8333 53.5,51.1667 49.5,50.5C 49.5,50.1667 49.5,49.8333 49.5,49.5C 50.5,49.5 51.5,49.5 52.5,49.5C 52.5,48.5 52.5,47.5 52.5,46.5 Z"/></g>
<g><path style="opacity:1" fill="#dc2380" d="M 45.5,53.5 C 46.5,53.5 47.5,53.5 48.5,53.5C 48.5,54.5 48.5,55.5 48.5,56.5C 47.5,56.5 46.5,56.5 45.5,56.5C 45.5,55.5 45.5,54.5 45.5,53.5 Z"/></g>
<g><path style="opacity:1" fill="#b2de1f" d="M 65.5,53.5 C 66.5,53.5 67.5,53.5 68.5,53.5C 68.5,54.5 68.5,55.5 68.5,56.5C 67.5,56.5 66.5,56.5 65.5,56.5C 65.5,55.5 65.5,54.5 65.5,53.5 Z"/></g>
<g><path style="opacity:1" fill="#dd2881" d="M 44.5,59.5 C 43.325,59.719 42.325,59.3857 41.5,58.5C 43.0517,57.2021 44.0517,57.5354 44.5,59.5 Z"/></g>
<g><path style="opacity:1" fill="#e01188" d="M 45.5,59.5 C 45.9483,57.5354 46.9483,57.2021 48.5,58.5C 47.675,59.3857 46.675,59.719 45.5,59.5 Z"/></g>
<g><path style="opacity:1" fill="#e00e89" d="M 52.5,59.5 C 51.325,59.719 50.325,59.3857 49.5,58.5C 51.0517,57.2021 52.0517,57.5354 52.5,59.5 Z"/></g>
<g><path style="opacity:1" fill="#dd2181" d="M 52.5,60.5 C 52.5,61.5 52.5,62.5 52.5,63.5C 51.5,63.5 50.5,63.5 49.5,63.5C 49.5,62.5 49.5,61.5 49.5,60.5C 50.5,60.5 51.5,60.5 52.5,60.5 Z"/></g>
<g><path style="opacity:1" fill="#da3179" d="M 56.5,60.5 C 56.5,61.5 56.5,62.5 56.5,63.5C 55.5,63.5 54.5,63.5 53.5,63.5C 53.5,62.5 53.5,61.5 53.5,60.5C 54.5,60.5 55.5,60.5 56.5,60.5 Z"/></g>
<g><path style="opacity:1" fill="#beb13a" d="M 56.5,60.5 C 56.8333,60.5 57.1667,60.5 57.5,60.5C 57.8333,60.5 58.1667,60.5 58.5,60.5C 59.5,60.5 60.5,60.5 61.5,60.5C 61.5,61.5 61.5,62.5 61.5,63.5C 60.5,63.5 59.5,63.5 58.5,63.5C 58.5,64.8333 58.5,66.1667 58.5,67.5C 59.5,67.5 60.5,67.5 61.5,67.5C 61.5,68.5 61.5,69.5 61.5,70.5C 60.5,70.5 59.5,70.5 58.5,70.5C 58.1667,70.5 57.8333,70.5 57.5,70.5C 57.5,69.5 57.5,68.5 57.5,67.5C 56.1667,67.5 54.8333,67.5 53.5,67.5C 53.5,67.1667 53.5,66.8333 53.5,66.5C 57.5,65.8333 57.5,65.1667 53.5,64.5C 53.5,64.1667 53.5,63.8333 53.5,63.5C 54.5,63.5 55.5,63.5 56.5,63.5C 56.5,62.5 56.5,61.5 56.5,60.5 Z"/></g>
<g><path style="opacity:1" fill="#e01188" d="M 45.5,64.5 C 46.675,64.281 47.675,64.6143 48.5,65.5C 46.9483,66.7979 45.9483,66.4646 45.5,64.5 Z"/></g>
<g><path style="opacity:1" fill="#de1e84" d="M 53.5,64.5 C 57.5,65.1667 57.5,65.8333 53.5,66.5C 53.5,65.8333 53.5,65.1667 53.5,64.5 Z"/></g>
<g><path style="opacity:1" fill="#b7d629" d="M 64.5,64.5 C 65.9778,64.238 67.3112,64.5713 68.5,65.5C 67.8333,65.8333 67.1667,66.1667 66.5,66.5C 65.2867,66.2528 64.62,65.5862 64.5,64.5 Z"/></g>
<g><path style="opacity:1" fill="#d74372" d="M 53.5,67.5 C 54.8333,67.5 56.1667,67.5 57.5,67.5C 57.5,68.5 57.5,69.5 57.5,70.5C 56.1667,70.5 54.8333,70.5 53.5,70.5C 53.5,69.5 53.5,68.5 53.5,67.5 Z"/></g>
<g><path style="opacity:1" fill="#cf6a5f" d="M 57.5,70.5 C 57.8333,70.5 58.1667,70.5 58.5,70.5C 58.815,74.3714 58.4816,78.0381 57.5,81.5C 56.4324,80.5655 55.099,80.2322 53.5,80.5C 53.5,78.5 53.5,76.5 53.5,74.5C 54.8333,74.5 56.1667,74.5 57.5,74.5C 57.5,73.1667 57.5,71.8333 57.5,70.5 Z"/></g>
<g><path style="opacity:1" fill="#afec1a" d="M 72.5,70.5 C 78.2617,70.1493 83.9284,70.6493 89.5,72C 93.8174,76.2044 93.4841,79.871 88.5,83C 83.1771,83.4994 77.8437,83.666 72.5,83.5C 72.5,79.1667 72.5,74.8333 72.5,70.5 Z"/></g>
<g><path style="opacity:1" fill="#d0705f" d="M 44.5,71.5 C 44.5,73.5 44.5,75.5 44.5,77.5C 43.1667,77.5 41.8333,77.5 40.5,77.5C 40.5,75.1667 40.5,72.8333 40.5,70.5C 42.099,70.2322 43.4324,70.5655 44.5,71.5 Z"/></g>
<g><path style="opacity:1" fill="#b2de20" d="M 61.5,74.5 C 62.5,74.5 63.5,74.5 64.5,74.5C 64.5,75.5 64.5,76.5 64.5,77.5C 63.5,77.5 62.5,77.5 61.5,77.5C 61.5,76.5 61.5,75.5 61.5,74.5 Z"/></g>
<g><path style="opacity:1" fill="#e01188" d="M 48.5,78.5 C 48.5,79.1667 48.5,79.8333 48.5,80.5C 44.5,79.8333 44.5,79.1667 48.5,78.5 Z"/></g>
<g><path style="opacity:1" fill="#acf50f" d="M 61.5,78.5 C 62.675,78.281 63.675,78.6143 64.5,79.5C 62.9483,80.7979 61.9483,80.4646 61.5,78.5 Z"/></g>
<g><path style="opacity:1" fill="#b0e91a" d="M 100.5,80.5 C 101.5,80.5 102.5,80.5 103.5,80.5C 103.5,81.5 103.5,82.5 103.5,83.5C 102.5,83.5 101.5,83.5 100.5,83.5C 100.5,82.5 100.5,81.5 100.5,80.5 Z"/></g>
<g><path style="opacity:1" fill="#dc2380" d="M 48.5,81.5 C 48.5,82.5 48.5,83.5 48.5,84.5C 47.5,84.5 46.5,84.5 45.5,84.5C 45.5,83.5 45.5,82.5 45.5,81.5C 46.5,81.5 47.5,81.5 48.5,81.5 Z"/></g>
<g><path style="opacity:1" fill="#e01188" d="M 45.5,85.5 C 49.5,86.1667 49.5,86.8333 45.5,87.5C 45.5,86.8333 45.5,86.1667 45.5,85.5 Z"/></g>
<g><path style="opacity:1" fill="#adef13" d="M 58.5,85.5 C 59.675,85.281 60.675,85.6143 61.5,86.5C 59.9483,87.7979 58.9483,87.4646 58.5,85.5 Z"/></g>
<g><path style="opacity:1" fill="#abf60e" d="M 75.5,85.5 C 76.675,85.281 77.675,85.6143 78.5,86.5C 76.9483,87.7979 75.9483,87.4646 75.5,85.5 Z"/></g>
<g><path style="opacity:1" fill="#bdb936" d="M 83.5,85.5 C 84.8333,85.5 86.1667,85.5 87.5,85.5C 87.5,86.5 87.5,87.5 87.5,88.5C 86.1667,88.5 84.8333,88.5 83.5,88.5C 83.5,87.5 83.5,86.5 83.5,85.5 Z"/></g>
<g><path style="opacity:1" fill="#d54e6c" d="M 40.5,88.5 C 41.8333,88.5 43.1667,88.5 44.5,88.5C 44.5,89.5 44.5,90.5 44.5,91.5C 43.1667,91.5 41.8333,91.5 40.5,91.5C 40.5,90.5 40.5,89.5 40.5,88.5 Z"/></g>
<g><path style="opacity:1" fill="#ce725c" d="M 56.5,88.5 C 57.7384,90.2143 58.405,92.2143 58.5,94.5C 56.8333,94.5 55.1667,94.5 53.5,94.5C 53.5,93.5 53.5,92.5 53.5,91.5C 54.5,91.5 55.5,91.5 56.5,91.5C 56.5,90.5 56.5,89.5 56.5,88.5 Z"/></g>
<g><path style="opacity:1" fill="#b3e124" d="M 66.5,91.5 C 67.5,91.5 68.5,91.5 69.5,91.5C 69.5,92.5 69.5,93.5 69.5,94.5C 68.5,94.5 67.5,94.5 66.5,94.5C 66.5,93.5 66.5,92.5 66.5,91.5 Z"/></g>
<g><path style="opacity:1" fill="#de1f83" d="M 78.5,92.5 C 78.5,93.5 78.5,94.5 78.5,95.5C 77.5,95.5 76.5,95.5 75.5,95.5C 75.5,94.5 75.5,93.5 75.5,92.5C 76.5,92.5 77.5,92.5 78.5,92.5 Z"/></g>
<g><path style="opacity:1" fill="#d35569" d="M 44.5,92.5 C 44.4431,93.609 44.1098,94.609 43.5,95.5C 42.5,95.5 41.5,95.5 40.5,95.5C 40.5,94.5 40.5,93.5 40.5,92.5C 41.8333,92.5 43.1667,92.5 44.5,92.5 Z"/></g>
<g><path style="opacity:1" fill="#b7d029" d="M 49.5,67.5 C 49.5,68.5 49.5,69.5 49.5,70.5C 50.5,70.5 51.5,70.5 52.5,70.5C 52.5,69.5 52.5,68.5 52.5,67.5C 52.8333,67.5 53.1667,67.5 53.5,67.5C 53.5,68.5 53.5,69.5 53.5,70.5C 54.8333,70.5 56.1667,70.5 57.5,70.5C 57.5,71.8333 57.5,73.1667 57.5,74.5C 56.1667,74.5 54.8333,74.5 53.5,74.5C 53.5,76.5 53.5,78.5 53.5,80.5C 55.099,80.2322 56.4324,80.5655 57.5,81.5C 56.1667,81.5 54.8333,81.5 53.5,81.5C 53.5,83.8333 53.5,86.1667 53.5,88.5C 54.5,88.5 55.5,88.5 56.5,88.5C 56.5,89.5 56.5,90.5 56.5,91.5C 55.5,91.5 54.5,91.5 53.5,91.5C 53.5,92.5 53.5,93.5 53.5,94.5C 55.1667,94.5 56.8333,94.5 58.5,94.5C 59.5,94.5 60.5,94.5 61.5,94.5C 62.7799,94.3635 63.1132,96.6968 62.5,101.5C 62.1667,101.5 61.8333,101.5 61.5,101.5C 61.5,99.5 61.5,97.5 61.5,95.5C 60.5,95.5 59.5,95.5 58.5,95.5C 58.5,97.5 58.5,99.5 58.5,101.5C 57.5386,99.7354 57.2053,97.7354 57.5,95.5C 56.1667,95.5 54.8333,95.5 53.5,95.5C 53.7373,96.791 53.404,97.791 52.5,98.5C 52.5,97.5 52.5,96.5 52.5,95.5C 51.5,95.5 50.5,95.5 49.5,95.5C 49.5,96.5 49.5,97.5 49.5,98.5C 48.596,97.791 48.2627,96.791 48.5,95.5C 46.8333,95.5 45.1667,95.5 43.5,95.5C 44.1098,94.609 44.4431,93.609 44.5,92.5C 44.8333,92.5 45.1667,92.5 45.5,92.5C 46.209,91.596 47.209,91.2627 48.5,91.5C 48.5,90.5 48.5,89.5 48.5,88.5C 47.209,88.7373 46.209,88.404 45.5,87.5C 49.5,86.8333 49.5,86.1667 45.5,85.5C 45.5,85.1667 45.5,84.8333 45.5,84.5C 46.5,84.5 47.5,84.5 48.5,84.5C 48.5,83.5 48.5,82.5 48.5,81.5C 48.5,81.1667 48.5,80.8333 48.5,80.5C 48.5,79.8333 48.5,79.1667 48.5,78.5C 48.5,78.1667 48.5,77.8333 48.5,77.5C 48.5,76.5 48.5,75.5 48.5,74.5C 47.5,74.5 46.5,74.5 45.5,74.5C 45.5,75.5 45.5,76.5 45.5,77.5C 45.1667,77.5 44.8333,77.5 44.5,77.5C 44.5,75.5 44.5,73.5 44.5,71.5C 44.8333,71.5 45.1667,71.5 45.5,71.5C 46.209,70.596 47.209,70.2627 48.5,70.5C 48.2627,69.209 48.596,68.209 49.5,67.5 Z"/></g>
<g><path style="opacity:1" fill="#e01188" d="M 45.5,92.5 C 46.675,92.281 47.675,92.6143 48.5,93.5C 46.9483,94.7979 45.9483,94.4646 45.5,92.5 Z"/></g>
<g><path style="opacity:1" fill="#db387d" d="M 49.5,88.5 C 50.5,88.5 51.5,88.5 52.5,88.5C 52.5,90.5 52.5,92.5 52.5,94.5C 51.5,94.5 50.5,94.5 49.5,94.5C 49.5,92.5 49.5,90.5 49.5,88.5 Z"/></g>
<g><path style="opacity:1" fill="#e00e89" d="M 49.5,85.5 C 50.675,85.281 51.675,85.6143 52.5,86.5C 50.9483,87.7979 49.9483,87.4646 49.5,85.5 Z"/></g>
<g><path style="opacity:1" fill="#e00e89" d="M 49.5,78.5 C 50.675,78.281 51.675,78.6143 52.5,79.5C 50.9483,80.7979 49.9483,80.4646 49.5,78.5 Z"/></g>
<g><path style="opacity:1" fill="#db297e" d="M 48.5,77.5 C 47.5,77.5 46.5,77.5 45.5,77.5C 45.5,76.5 45.5,75.5 45.5,74.5C 46.5,74.5 47.5,74.5 48.5,74.5C 48.5,75.5 48.5,76.5 48.5,77.5 Z"/></g>
<g><path style="opacity:1" fill="#e00e89" d="M 49.5,71.5 C 50.675,71.281 51.675,71.6143 52.5,72.5C 50.9483,73.7979 49.9483,73.4646 49.5,71.5 Z"/></g>
<g><path style="opacity:1" fill="#e00e89" d="M 45.5,71.5 C 46.675,71.281 47.675,71.6143 48.5,72.5C 46.9483,73.7979 45.9483,73.4646 45.5,71.5 Z"/></g>
<g><path style="opacity:1" fill="#dd2181" d="M 49.5,67.5 C 50.5,67.5 51.5,67.5 52.5,67.5C 52.5,68.5 52.5,69.5 52.5,70.5C 51.5,70.5 50.5,70.5 49.5,70.5C 49.5,69.5 49.5,68.5 49.5,67.5 Z"/></g>
<g><path style="opacity:1" fill="#df1786" d="M 92.5,94.5 C 93.5,94.5 94.5,94.5 95.5,94.5C 95.5,95.5 95.5,96.5 95.5,97.5C 94.5,97.5 93.5,97.5 92.5,97.5C 92.5,96.5 92.5,95.5 92.5,94.5 Z"/></g>
<g><path style="opacity:1" fill="#dc2f7f" d="M 52.5,98.5 C 51.5,98.5 50.5,98.5 49.5,98.5C 49.5,97.5 49.5,96.5 49.5,95.5C 50.5,95.5 51.5,95.5 52.5,95.5C 52.5,96.5 52.5,97.5 52.5,98.5 Z"/></g>
<g><path style="opacity:1" fill="#de2683" d="M 96.5,95.5 C 97.5,95.5 98.5,95.5 99.5,95.5C 99.5,96.5 99.5,97.5 99.5,98.5C 98.5,98.5 97.5,98.5 96.5,98.5C 96.5,97.5 96.5,96.5 96.5,95.5 Z"/></g>
<g><path style="opacity:1" fill="#c0a03e" d="M 79.5,92.5 C 79.1667,92.5 78.8333,92.5 78.5,92.5C 77.5,92.5 76.5,92.5 75.5,92.5C 75.5,93.5 75.5,94.5 75.5,95.5C 76.5,95.5 77.5,95.5 78.5,95.5C 78.5,95.8333 78.5,96.1667 78.5,96.5C 76.8212,96.2852 75.8212,96.9519 75.5,98.5C 73.8333,95.8333 72.1667,95.8333 70.5,98.5C 70.5,97.5 70.5,96.5 70.5,95.5C 71.8333,95.5 73.1667,95.5 74.5,95.5C 74.5,94.1667 74.5,92.8333 74.5,91.5C 76.4147,91.2155 78.0813,91.5489 79.5,92.5 Z"/></g>
<g><path style="opacity:1" fill="#dc3d7c" d="M 78.5,96.5 C 78.5,97.5 78.5,98.5 78.5,99.5C 77.209,99.7373 76.209,99.404 75.5,98.5C 75.8212,96.9519 76.8212,96.2852 78.5,96.5 Z"/></g>
<g><path style="opacity:1" fill="#da3c79" d="M 100.5,95.5 C 101.5,95.5 102.5,95.5 103.5,95.5C 103.5,96.8333 103.5,98.1667 103.5,99.5C 102.5,99.5 101.5,99.5 100.5,99.5C 100.5,98.1667 100.5,96.8333 100.5,95.5 Z"/></g>
<g><path style="opacity:1" fill="#d64c70" d="M 61.5,101.5 C 60.5,101.5 59.5,101.5 58.5,101.5C 58.5,99.5 58.5,97.5 58.5,95.5C 59.5,95.5 60.5,95.5 61.5,95.5C 61.5,97.5 61.5,99.5 61.5,101.5 Z"/></g>
<g><path style="opacity:1" fill="#df1c85" d="M 92.5,98.5 C 93.5,98.5 94.5,98.5 95.5,98.5C 95.5,99.5 95.5,100.5 95.5,101.5C 94.5,101.5 93.5,101.5 92.5,101.5C 92.5,100.5 92.5,99.5 92.5,98.5 Z"/></g>
<g><path style="opacity:1" fill="#d94177" d="M 66.5,99.5 C 69.1667,99.5 71.8333,99.5 74.5,99.5C 74.5,100.5 74.5,101.5 74.5,102.5C 71.8333,102.5 69.1667,102.5 66.5,102.5C 66.5,101.5 66.5,100.5 66.5,99.5 Z"/></g>
<g><path style="opacity:1" fill="#e01487" d="M 79.5,100.5 C 80.5,100.5 81.5,100.5 82.5,100.5C 82.5,101.5 82.5,102.5 82.5,103.5C 81.5,103.5 80.5,103.5 79.5,103.5C 79.5,102.5 79.5,101.5 79.5,100.5 Z"/></g>
<g><path style="opacity:1" fill="#e01188" d="M 92.5,102.5 C 93.5,102.5 94.5,102.5 95.5,102.5C 95.5,103.5 95.5,104.5 95.5,105.5C 94.5,105.5 93.5,105.5 92.5,105.5C 92.5,104.5 92.5,103.5 92.5,102.5 Z"/></g>
<g><path style="opacity:1" fill="#de2283" d="M 96.5,102.5 C 98.5323,103.048 99.5323,104.381 99.5,106.5C 98.5,106.5 97.5,106.5 96.5,106.5C 96.5,105.167 96.5,103.833 96.5,102.5 Z"/></g>
<g><path style="opacity:1" fill="#a9b42f" d="M 106.5,116.5 C 106.5,118.167 106.5,119.833 106.5,121.5C 102.066,122.794 97.7327,122.794 93.5,121.5C 94.2389,121.631 94.9056,121.464 95.5,121C 94.6705,119.184 93.8372,117.351 93,115.5C 92.0656,116.858 91.2323,118.192 90.5,119.5C 90.0101,117.052 90.8434,115.385 93,114.5C 97.204,115.485 101.704,116.152 106.5,116.5 Z"/></g>
<g><path style="opacity:1" fill="#a8c126" d="M 64.5,121.5 C 56.2446,122.303 47.9112,122.803 39.5,123C 37.9769,124.788 36.3102,124.955 34.5,123.5C 34.2648,124.097 33.7648,124.43 33,124.5C 30.1761,123.129 27.3428,122.129 24.5,121.5C 23.3775,119.712 23.2109,117.712 24,115.5C 24.8926,114.919 25.8926,114.585 27,114.5C 29.5733,115.514 32.24,116.18 35,116.5C 48.7739,116.491 62.6073,116.324 76.5,116C 77.8333,114 79.1667,114 80.5,116C 83.146,116.497 85.8127,116.664 88.5,116.5C 88.5,118.5 88.5,120.5 88.5,122.5C 80.3159,122.826 72.3159,122.492 64.5,121.5 Z"/></g>
<g><path style="opacity:1" fill="#d4546a" d="M 53.5,117.5 C 54.2679,118.263 54.7679,119.263 55,120.5C 56.4943,116.696 57.3276,117.029 57.5,121.5C 56.1667,121.5 54.8333,121.5 53.5,121.5C 53.5,120.167 53.5,118.833 53.5,117.5 Z"/></g>
<g><path style="opacity:1" fill="#161d02" d="M 26.5,117.5 C 28.337,117.639 28.6704,118.306 27.5,119.5C 26.7025,119.043 26.3691,118.376 26.5,117.5 Z"/></g>
<g><path style="opacity:1" fill="#db2d7c" d="M 49.5,117.5 C 52.7973,117.329 53.1306,117.995 50.5,119.5C 53.1306,121.005 52.7973,121.671 49.5,121.5C 49.5,120.167 49.5,118.833 49.5,117.5 Z"/></g>
<g><path style="opacity:1" fill="#df1886" d="M 61.5,117.5 C 62.2389,117.369 62.9056,117.536 63.5,118C 62.1177,122.705 61.4511,122.539 61.5,117.5 Z"/></g>
<g><path style="opacity:1" fill="#d5486e" d="M 64.5,121.5 C 64.5,120.167 64.5,118.833 64.5,117.5C 66.1033,117.312 67.4366,117.812 68.5,119C 67.5509,119.617 66.7175,119.451 66,118.5C 65.5439,119.744 66.0439,120.577 67.5,121C 66.552,121.483 65.552,121.649 64.5,121.5 Z"/></g>
<g><path style="opacity:1" fill="#ce675e" d="M 69.5,117.5 C 72.7525,118.247 76.0859,118.247 79.5,117.5C 79.5,118.833 79.5,120.167 79.5,121.5C 76.8333,121.5 74.1667,121.5 71.5,121.5C 71.3068,117.551 70.8068,117.551 70,121.5C 69.51,120.207 69.3433,118.873 69.5,117.5 Z"/></g>
<g><path style="opacity:1" fill="#d64471" d="M 80.5,117.5 C 82.8205,118.625 85.1538,118.792 87.5,118C 87.5544,119.351 87.0544,120.518 86,121.5C 85.7486,120.014 84.4153,119.014 82,118.5C 81.5439,119.744 82.0439,120.577 83.5,121C 82.552,121.483 81.552,121.649 80.5,121.5C 80.5,120.167 80.5,118.833 80.5,117.5 Z"/></g>
<g><path style="opacity:1" fill="#dd1c82" d="M 103.5,117.5 C 104.239,117.369 104.906,117.536 105.5,118C 104.118,122.705 103.451,122.539 103.5,117.5 Z"/></g>
<g><path style="opacity:1" fill="#d06062" d="M 106.5,116.5 C 108.085,117.474 109.085,118.974 109.5,121C 108.552,121.483 107.552,121.649 106.5,121.5C 106.5,119.833 106.5,118.167 106.5,116.5 Z"/></g>
<g><path style="opacity:1" fill="#db257d" d="M 58.5,117.5 C 59.2389,117.369 59.9056,117.536 60.5,118C 59.1177,122.705 58.4511,122.539 58.5,117.5 Z"/></g>
<g><path style="opacity:1" fill="#8bc70c" d="M 75.5,118.5 C 77.337,118.639 77.6704,119.306 76.5,120.5C 75.7025,120.043 75.3691,119.376 75.5,118.5 Z"/></g>
<g><path style="opacity:1" fill="#d93e76" d="M 93.5,121.5 C 92.8106,120.226 91.9772,120.226 91,121.5C 90.5357,120.906 90.369,120.239 90.5,119.5C 91.2323,118.192 92.0656,116.858 93,115.5C 93.8372,117.351 94.6705,119.184 95.5,121C 94.9056,121.464 94.2389,121.631 93.5,121.5 Z"/></g>
<g><path style="opacity:1" fill="#d93778" d="M 24.5,121.5 C 24.6636,115.833 24.9969,115.5 25.5,120.5C 29.1716,121.045 28.8383,121.378 24.5,121.5 Z"/></g>
<g><path style="opacity:1" fill="#d73d74" d="M 41.5,116.5 C 43.717,117.369 46.0504,117.702 48.5,117.5C 48.5,118.833 48.5,120.167 48.5,121.5C 47.1667,121.5 45.8333,121.5 44.5,121.5C 44.719,120.325 44.3857,119.325 43.5,118.5C 43.0024,119.603 42.6691,120.603 42.5,121.5C 41.5481,119.955 41.2148,118.288 41.5,116.5 Z"/></g>
<g><path style="opacity:1" fill="#b3d321" d="M 45.5,118.5 C 47.337,118.639 47.6704,119.306 46.5,120.5C 45.7025,120.043 45.3691,119.376 45.5,118.5 Z"/></g>
<g><path style="opacity:1" fill="#9ec918" d="M 90.5,119.5 C 90.369,120.239 90.5357,120.906 91,121.5C 91.9772,120.226 92.8106,120.226 93.5,121.5C 92.2921,122.234 90.9587,122.567 89.5,122.5C 89.2627,121.209 89.596,120.209 90.5,119.5 Z"/></g>
<g><path style="opacity:1" fill="#d15c64" d="M 98.5,117.5 C 99.9778,117.238 101.311,117.571 102.5,118.5C 100.009,119.541 100.009,120.374 102.5,121C 101.207,121.49 99.8734,121.657 98.5,121.5C 98.5,120.167 98.5,118.833 98.5,117.5 Z"/></g>
<g><path style="opacity:1" fill="#8da61d" d="M 106.5,121.5 C 107.552,121.649 108.552,121.483 109.5,121C 109.085,118.974 108.085,117.474 106.5,116.5C 109.036,116.966 111.536,116.3 114,114.5C 116.805,116.45 119.805,116.783 123,115.5C 123.772,115.645 124.439,115.978 125,116.5C 125.495,118.473 125.662,120.473 125.5,122.5C 118.978,122.823 112.645,122.49 106.5,121.5 Z"/></g>
<g><path style="opacity:1" fill="#d93d77" d="M 122.5,116.5 C 123.289,116.783 123.956,117.283 124.5,118C 123.167,119 123.167,120 124.5,121C 124.167,121.167 123.833,121.333 123.5,121.5C 122.262,117.689 121.596,117.689 121.5,121.5C 120.167,121.5 118.833,121.5 117.5,121.5C 117.5,120.167 117.5,118.833 117.5,117.5C 119.415,117.784 121.081,117.451 122.5,116.5 Z"/></g>
<g><path style="opacity:1" fill="#b9bf30" d="M 118.5,118.5 C 120.337,118.639 120.67,119.306 119.5,120.5C 118.702,120.043 118.369,119.376 118.5,118.5 Z"/></g>
<g><path style="opacity:1" fill="#d46269" d="M 112.5,115.5 C 116.068,115.759 117.401,117.759 116.5,121.5C 115.167,121.5 113.833,121.5 112.5,121.5C 112.5,119.5 112.5,117.5 112.5,115.5 Z"/></g>
<g><path style="opacity:1" fill="#d74272" d="M 34.5,123.5 C 32.3523,123.611 32.019,122.944 33.5,121.5C 32.1532,117.625 30.9865,117.625 30,121.5C 29.51,120.207 29.3433,118.873 29.5,117.5C 31.451,117.227 32.951,117.893 34,119.5C 35.7542,117.75 37.9208,117.083 40.5,117.5C 40.627,120.245 39.4603,122.245 37,123.5C 36.4528,116.948 35.6195,116.948 34.5,123.5 Z"/></g>
<g><path style="opacity:1" fill="#bdb735" d="M 37.5,118.5 C 39.337,118.639 39.6704,119.306 38.5,120.5C 37.7025,120.043 37.3691,119.376 37.5,118.5 Z"/></g>
</svg>
